# xmcd
#
# Track frame offsets:
# 150
# 20803
# 38192
# 52007
# 64578
# 78666
# 95549
# 111035
# 124616
# 140110
# 153395
# 167093
#
# Disc length: 2417 seconds
#
#
# Revision: 0
# Processed by: cddbd v1.4PL0 Copyright (c) Steve Scherf et al.
# Submitted via: FreeRIP 2.00 
#
DISCID=a5096f0c
DTITLE=Walker and Long - Gympie Gold
DYEAR=2001
DGENRE=Country
TTITLE0=I Think I Can Fly
TTITLE1=Rodeo Ruby
TTITLE2=Gympie Gold
TTITLE3=Neville's Farm
TTITLE4=You're The One
TTITLE5=Slow Dancer
TTITLE6=Those Lonely Days
TTITLE7=The Way She Moves
TTITLE8=The Daisy Field
TTITLE9=Share One Voice
TTITLE10=You're Better Off In Love
TTITLE11=It Takes Two To Tango
EXTD=http://clix.to/davewalker
EXTT0=
EXTT1=
EXTT2=
EXTT3=
EXTT4=
EXTT5=
EXTT6=
EXTT7=
EXTT8=
EXTT9=
EXTT10=
EXTT11=
PLAYORDER=
